<?xml version="1.0" encoding="UTF-8"?>
<svg width="184px" height="46px" viewBox="0 0 184 46" version="1.1" xmlns="http://www.w3.org/2000/svg" xmlns:xlink="http://www.w3.org/1999/xlink">
    <!-- Generator: Sketch 42 (36781) - http://www.bohemiancoding.com/sketch -->
    <title>Baltimore Magazine</title>
    <desc>Created with Sketch.</desc>
    <defs>
        <polygon id="path-1" points="20.0408219 25.0741636 20.0408219 0.0759722651 0.278327267 0.0759722651 0.278327267 25.0741636 20.0408219 25.0741636"></polygon>
        <polygon id="path-3" points="5.40568713 5.96153134 0.365586826 5.96153134 0.365586826 0.168115184 5.40568713 0.168115184 5.40568713 5.96153134"></polygon>
        <polygon id="path-5" points="0 45.6929022 183.675634 45.6929022 183.675634 0 0 0"></polygon>
    </defs>
    <g id="Home-As-Seen-In" stroke="none" stroke-width="1" fill="none" fill-rule="evenodd" opacity="0.85">
        <g id="HOME_Seen_In_V2" transform="translate(-515.000000, -3227.000000)">
            <g id="Baltimore-Magazine" transform="translate(515.000000, 3227.000000)">
                <path d="M10.1953743,34.3814926 C10.5818783,34.414281 11.0083654,34.4541488 11.4759463,34.5029588 C11.9424166,34.5517688 12.6113942,34.5759876 13.4810281,34.5759876 C14.9948352,34.5759876 16.2913264,34.4303026 17.3708719,34.1385602 C18.449677,33.8464452 19.3352301,33.3356164 20.0286419,32.6064466 C20.720943,31.8769042 21.2281369,30.9126265 21.5505937,29.713241 C21.8723101,28.5138554 22.0337237,27.0063331 22.0337237,25.1903017 C22.0337237,22.5970355 21.485436,20.5548384 20.3907117,19.0629652 C19.2952469,17.5722098 17.6685244,16.8259006 15.510544,16.8259006 L10.1953743,16.8259006 L10.1953743,34.3814926 Z M10.1953743,16.1451682 L14.6409102,16.1451682 C15.5423825,16.1451682 16.3638885,16.0318991 17.1050579,15.8049883 C17.8458571,15.5780776 18.4822559,15.1808905 19.0135137,14.6130547 C19.5451417,14.0463366 19.9560798,13.2758087 20.2455876,12.3033339 C20.5358358,11.3308591 20.6805896,10.0990577 20.6805896,8.60755703 C20.6805896,6.92230664 20.4632737,5.56792124 20.0286419,4.54700899 C19.5936398,3.52572416 19.0294329,2.75594142 18.3371318,2.2369156 C17.6440902,1.71863497 16.8710823,1.37845508 16.0181081,1.21563076 C15.1640232,1.05392422 14.3184533,0.972698358 13.4810281,0.972698358 C12.9012722,0.972698358 12.3130013,0.980895463 11.7173262,0.996544483 C11.1209106,1.01331129 10.6137167,1.05392422 10.1953743,1.11838328 L10.1953743,16.1451682 Z M3.70214507e-05,34.3814926 L5.36333459,34.3814926 L5.36333459,1.11838328 L3.70214507e-05,1.11838328 L3.70214507e-05,0.437278324 L8.45573637,0.437278324 C8.93886631,0.437278324 9.42977074,0.430199006 9.92956033,0.413432199 C10.4286095,0.397410583 10.9358034,0.373191862 11.4518824,0.34040344 C11.9664805,0.34040344 12.4662701,0.33257893 12.9494001,0.315812123 C13.4329002,0.299790507 13.8993705,0.291593402 14.3510322,0.291593402 C16.7018943,0.291593402 18.6347843,0.575883928 20.1493318,1.142602 C21.6631389,1.71006527 22.8552296,2.40719184 23.7248635,3.23360912 C24.5944974,4.060399 25.1901725,4.95276572 25.5126294,5.90847371 C25.8343458,6.8649269 25.9957593,7.73232971 25.9957593,8.50993695 C25.9957593,9.58040443 25.7617837,10.5692734 25.2953135,11.476544 C24.8277325,12.3845597 24.1998487,13.1789338 23.4109216,13.8596661 C22.6208839,14.5403985 21.7112668,15.0918402 20.6805896,15.5128733 C19.6495422,15.9346516 18.5707371,16.2103725 17.443434,16.3396632 L17.443434,16.4369107 C18.6029458,16.5341581 19.7868918,16.7856602 20.9949017,17.1906718 C22.2029117,17.5964285 23.297636,18.1635192 24.2805555,18.892689 C25.2627346,19.6222314 26.0601766,20.52205 26.6721412,21.5917723 C27.2837356,22.6614946 27.5902732,23.8944138 27.5902732,25.2875491 C27.5902732,26.7466339 27.3163145,28.0838799 26.7691374,29.2996597 C26.2208497,30.5154395 25.3993437,31.5609431 24.3046194,32.4361704 C23.2091547,33.3117703 21.823812,34.0010724 20.1493318,34.5029588 C18.4737409,35.005963 16.525302,35.2570925 14.3025341,35.2570925 C13.8512426,35.2570925 13.4088363,35.2485228 12.9738342,35.2325012 C12.5388322,35.2157344 12.0797662,35.1915157 11.5966363,35.1594724 C11.1135063,35.1270566 10.6137167,35.1028379 10.0987484,35.0868163 C9.58303955,35.0700495 9.03586251,35.062225 8.45573637,35.062225 L3.70214507e-05,35.062225 L3.70214507e-05,34.3814926 Z" id="Fill-1" fill="#212121"></path>
                <path d="M42.0880214,21.5446389 L41.9913954,21.5446389 C41.9262377,22.0200711 41.3949798,22.4955032 40.3968815,22.9701901 L36.7728517,24.614455 C35.7414341,25.0898871 34.952507,25.757206 34.4053299,26.6152939 C33.8570422,27.4744996 33.5838239,28.5434767 33.5838239,29.8225978 C33.5838239,30.3706861 33.6319518,30.9377768 33.7285778,31.5220068 C33.825574,32.1069821 34.0021663,32.6278709 34.2602058,33.0843006 C34.5175049,33.5414756 34.8799449,33.9163069 35.3471556,34.2080493 C35.8139961,34.5009095 36.4181862,34.6465944 37.1593557,34.6465944 C38.2226117,34.6465944 39.0837307,34.3913664 39.7445636,33.8790473 C40.4042858,33.367846 40.9040754,32.7277265 41.2424515,31.960552 C41.5804573,31.1930048 41.8055477,30.362489 41.9188334,29.4660237 C42.0313786,28.5710488 42.0880214,27.758045 42.0880214,27.0266396 L42.0880214,21.5446389 Z M50.5437207,34.3727366 C50.1246379,34.7386256 49.6255888,35.0575675 49.0458328,35.3321706 C48.4660769,35.6060284 47.7571161,35.7431436 46.9200611,35.7431436 C45.3736751,35.7431436 44.2541465,35.3679397 43.5614751,34.6190224 C42.8684336,33.8704776 42.3938186,32.8197577 42.1361493,31.4668627 L42.0395233,31.4668627 C41.9106886,31.7958647 41.7333559,32.2072103 41.5082655,32.7008997 C41.2824346,33.1938438 40.9359138,33.6692759 40.4690734,34.1257056 C40.0018626,34.5836258 39.3821236,34.9670268 38.6091157,35.2770264 C37.8357376,35.587026 36.852818,35.7431436 35.6614678,35.7431436 C34.3087039,35.7431436 33.2287882,35.5691414 32.4239419,35.2222548 C31.6183551,34.8753682 30.9904713,34.446138 30.53955,33.9341915 C30.0882586,33.4226175 29.7906061,32.8473298 29.6458522,32.2072103 C29.5007281,31.5682087 29.4281661,30.9739185 29.4281661,30.4254577 C29.4281661,29.1467092 29.6532565,28.1231888 30.104548,27.3556416 C30.5554693,26.5880945 31.1437401,25.9766649 31.8686201,25.5187448 C32.5931299,25.062315 33.3979763,24.6882289 34.2842698,24.3953687 C35.1698229,24.1028811 36.0638909,23.7921363 36.9661037,23.4635068 C38.0293597,23.0614761 38.9063979,22.7145895 39.5994395,22.4217292 C40.2917406,22.1296142 40.8315134,21.7730401 41.2180173,21.3527521 C41.6048915,20.9332094 41.8707055,20.4026331 42.0154594,19.7628863 C42.1605834,19.1238846 42.2331455,18.255364 42.2331455,17.1588148 C42.2331455,16.2817245 42.1846474,15.4959202 42.0880214,14.8017744 C41.9913954,14.1076286 41.8140627,13.5133384 41.5563934,13.0196491 C41.2983538,12.5263324 40.9285096,12.1522463 40.4453796,11.8959005 C39.9618795,11.6406724 39.317336,11.5124995 38.5124897,11.5124995 C37.4492336,11.5124995 36.571455,11.7233886 35.8791539,12.1429314 C35.1857421,12.5632194 34.8399618,13.2487955 34.8399618,14.1985419 C34.8399618,14.8204042 34.8884599,15.4322063 34.9850859,16.0350662 C35.0817118,16.637926 35.1302099,17.0857861 35.1302099,17.3779011 C35.1302099,17.8902202 34.9684262,18.3194505 34.6467098,18.6663371 C34.324253,19.0143415 33.8570422,19.1872259 33.2454479,19.1872259 C32.182562,19.1872259 31.5217291,18.967767 31.2644301,18.5292219 C31.0060203,18.0910493 30.8779261,17.5247038 30.8779261,16.8301854 C30.8779261,16.0264965 31.0385992,15.2589493 31.361056,14.527544 C31.6827724,13.7968838 32.1584981,13.1485672 32.7863819,12.5814766 C33.4146359,12.0151311 34.203563,11.567271 35.1542739,11.238269 C36.1038741,10.909267 37.1911941,10.7449523 38.4158637,10.7449523 C39.8970919,10.7449523 41.1373105,10.9558415 42.1361493,11.3753843 C43.1342476,11.7956722 43.9398344,12.3620177 44.5521692,13.0747933 C45.1637635,13.7871963 45.5987656,14.5916304 45.8568051,15.4869779 C46.1141042,16.3830706 46.243309,17.3235022 46.243309,18.309763 L46.243309,31.960552 C46.243309,33.0209594 46.3884331,33.733735 46.6783111,34.0985062 C46.968189,34.4640225 47.3865314,34.6465944 47.9344489,34.6465944 C48.2887442,34.6465944 48.6593289,34.5739383 49.0458328,34.4275082 C49.4323368,34.2814507 49.8025513,34.062737 50.1572168,33.7698767 L50.5437207,34.3727366 Z" id="Fill-3" fill="#212121"></path>
                <polygon id="Fill-5" fill="#212121" points="53.540274 34.3814926 53.540274 0.680955918 49.8196182 0.680955918 49.8196182 0.000223557426 57.6959318 0.000223557426 57.6959318 34.3814926 61.4162174 34.3814926 61.4162174 35.062225 53.5517506 35.062225"></polygon>
                <path d="M60.6285861,11.4574298 C60.6285861,11.4574298 63.2822836,10.7468898 64.7320437,9.72225161 C65.9456068,8.86490889 67.7248577,3.97794357 67.8596158,1.90593883 C67.8718329,1.71852319 68.2905455,1.77366735 68.4845379,1.77366735 L68.5045295,11.4574298 L75.3660852,11.4574298 L75.3660852,12.224977 L68.5045295,12.224977 L68.5045295,30.1513017 C68.5045295,31.1748222 68.5930108,32.0068284 68.7703435,32.64583 C68.9469358,33.2855768 69.1812816,33.7792662 69.4711596,34.1257802 C69.7610375,34.473412 70.0749794,34.7014405 70.4133555,34.8109837 C70.7513613,34.9205268 71.0812225,34.975671 71.4036793,34.975671 C72.5309825,34.975671 73.4405995,34.5095537 74.1336411,33.5776919 C74.8263124,32.64583 75.2694592,31.5768529 75.4627112,30.370388 L76.1390931,30.6449911 C76.0424671,31.1204232 75.8977132,31.6502543 75.7044612,32.2348569 C75.510839,32.8198322 75.2128164,33.3772354 74.8103932,33.9066939 C74.4072296,34.436525 73.8841165,34.8754427 73.2399433,35.2219567 C72.5950296,35.5692159 71.7901832,35.7432181 70.8239234,35.7432181 C68.4079035,35.7432181 66.7245381,35.2126418 65.7745677,34.1533522 C64.8242271,33.0936901 64.3492419,31.5958553 64.3492419,29.657985 L64.3492419,12.224977 L60.6285861,12.224977 L60.6285861,11.4574298 Z" id="Fill-7" fill="#212121"></path>
                <polygon id="Fill-9" fill="#212121" points="75.0288198 34.235286 78.7494756 34.235286 78.7494756 12.2223316 75.0288198 12.2223316 75.0288198 11.4540392 82.9051334 11.4540392 82.9051334 34.235286 86.6257892 34.235286 86.6257892 35.003951 75.0288198 35.003951"></polygon>
                <path d="M78.1696826,4.42520746 C78.1696826,3.71243187 78.418837,3.10435567 78.9186266,2.60135146 C79.4176757,2.09946504 80.0214956,1.84759034 80.7304564,1.84759034 C81.4386767,1.84759034 82.0428668,2.09946504 82.5426564,2.60135146 C83.0417055,3.10435567 83.2916003,3.71243187 83.2916003,4.42520746 C83.2916003,5.13872824 83.0417055,5.74643184 82.5426564,6.24906345 C82.0428668,6.75169506 81.4386767,7.00245198 80.7304564,7.00245198 C80.0214956,7.00245198 79.4176757,6.75169506 78.9186266,6.24906345 C78.418837,5.74643184 78.1696826,5.13872824 78.1696826,4.42520746" id="Fill-11" fill="#212121"></path>
                <path d="M85.9828747,34.2081611 L89.7035305,34.2081611 L89.7035305,12.2250142 L85.9828747,12.2250142 L85.9828747,11.4574671 L93.7625624,11.4574671 L93.7625624,17.2136982 L93.8588181,17.2136982 C94.5355702,15.0205999 95.5092344,13.413222 96.7824021,12.389329 C98.0540889,11.3669263 99.5923302,10.8546072 101.396756,10.8546072 C103.007189,10.8546072 104.432515,11.2573832 105.673103,12.0603269 C106.912582,12.8647611 107.726313,14.1986537 108.113187,16.0623775 L108.209813,16.0623775 C108.434904,15.404746 108.741441,14.7653718 109.127945,14.1438821 C109.514449,13.5227651 109.997579,12.9653619 110.577705,12.4716726 C111.157461,11.9783559 111.841247,11.5863852 112.630915,11.2927798 C113.419842,11.0010373 114.31391,10.8546072 115.312749,10.8546072 C120.015584,10.8546072 122.367186,13.5775367 122.367186,19.0226504 L122.367186,34.2081611 L126.087842,34.2081611 L126.087842,34.9757082 L114.491243,34.9757082 L114.491243,34.2081611 L118.211899,34.2081611 L118.211899,15.5690607 C118.211899,14.3271992 117.913506,13.3580778 117.318201,12.663932 C116.721415,11.9697862 115.908424,11.6217818 114.878117,11.6217818 C114.07216,11.6217818 113.266573,11.795784 112.461727,12.1426706 C111.65651,12.490675 110.93163,13.0111912 110.287457,13.705337 C109.642543,14.3998554 109.11943,15.2952029 108.717007,16.3913795 C108.313844,17.4879286 108.113187,18.7677949 108.113187,20.2287427 L108.113187,34.2081611 L111.833843,34.2081611 L111.833843,34.9757082 L100.237244,34.9757082 L100.237244,34.2081611 L103.9579,34.2081611 L103.9579,16.3366079 C103.9579,14.7284848 103.668022,13.5406497 103.087896,12.7734751 C102.50814,12.005928 101.735132,11.6217818 100.768502,11.6217818 C100.09212,11.6217818 99.3505801,11.8140412 98.546104,12.1978148 C97.7405172,12.5812157 96.9912031,13.1844482 96.2989019,14.0067669 C95.6058604,14.8290857 95.0261045,15.8980627 94.5596342,17.2136982 C94.0920533,18.5293336 93.8588181,20.1382019 93.8588181,22.0380674 L93.8588181,34.2081611 L97.5794739,34.2081611 L97.5794739,34.9757082 L85.9828747,34.9757082 L85.9828747,34.2081611 Z" id="Fill-13" fill="#212121"></path>
                <path d="M129.988126,23.2440107 C129.988126,25.8391398 130.165088,27.9036926 130.519754,29.4384144 C130.874049,30.9738813 131.34089,32.1524015 131.921016,32.9747202 C132.500772,33.797039 133.177154,34.3365576 133.950162,34.5917856 C134.72354,34.8481315 135.545046,34.9755592 136.41468,34.9755592 C137.284313,34.9755592 138.105819,34.8481315 138.879198,34.5917856 C139.652205,34.3365576 140.328587,33.797039 140.908343,32.9747202 C141.488099,32.1524015 141.954569,30.9738813 142.309605,29.4384144 C142.66353,27.9036926 142.841233,25.8391398 142.841233,23.2440107 C142.841233,21.051285 142.712028,19.2147607 142.454729,17.734438 C142.19669,16.2544878 141.802411,15.0480229 141.270783,14.116161 C140.739155,13.1842992 140.070178,12.518098 139.265702,12.1153221 C138.460115,11.7136639 137.509404,11.5124622 136.41468,11.5124622 C135.319215,11.5124622 134.368504,11.7136639 133.563658,12.1153221 C132.758071,12.518098 132.090204,13.1842992 131.558576,14.116161 C131.027318,15.0480229 130.632299,16.2544878 130.37463,17.734438 C130.11659,19.2147607 129.988126,21.051285 129.988126,23.2440107 M125.156086,23.2440107 C125.156086,21.4536883 125.502237,19.7904211 126.195278,18.2553268 C126.887579,16.720605 127.773133,15.3960273 128.852678,14.2808483 C129.931853,13.1664146 131.139493,12.2986392 132.476708,11.6767769 C133.812812,11.0560325 135.125963,10.7449151 136.41468,10.7449151 C137.702656,10.7449151 139.015807,11.0560325 140.352651,11.6767769 C141.688755,12.2986392 142.897136,13.1664146 143.976681,14.2808483 C145.055486,15.3960273 145.94141,16.720605 146.634451,18.2553268 C147.326382,19.7904211 147.673273,21.4536883 147.673273,23.2440107 C147.673273,24.9624221 147.350446,26.5794875 146.706643,28.0955794 C146.062099,29.6124166 145.21653,30.9377395 144.169933,32.0704305 C143.122966,33.2031214 141.923101,34.0984689 140.570337,34.7561003 C139.217203,35.4141043 137.831861,35.7431064 136.41468,35.7431064 C134.996758,35.7431064 133.612156,35.4141043 132.259392,34.7561003 C130.906258,34.0984689 129.705652,33.2031214 128.659426,32.0704305 C127.612089,30.9377395 126.76689,29.6124166 126.122716,28.0955794 C125.477803,26.5794875 125.156086,24.9624221 125.156086,23.2440107" id="Fill-15" fill="#212121"></path>
                <path d="M145.969176,34.2081611 L149.689831,34.2081611 L149.689831,12.2250142 L145.969176,12.2250142 L145.969176,11.4574671 L153.748493,11.4574671 L153.748493,16.9946119 L153.844749,16.9946119 C153.973213,16.446151 154.183125,15.825034 154.473373,15.1305156 C154.763251,14.4367424 155.165674,13.7697961 155.681013,13.1296766 C156.195981,12.490675 156.816831,11.9507838 157.541711,11.5122387 C158.266221,11.0740661 159.143629,10.8546072 160.175047,10.8546072 C160.915476,10.8546072 161.559279,10.9913499 162.107937,11.2655803 C162.655114,11.5398107 163.105665,11.8878151 163.4607,12.3073579 C163.814626,12.7276459 164.071925,13.2116477 164.233708,13.7601086 C164.394752,14.3081969 164.475088,14.8566577 164.475088,15.404746 C164.475088,16.6104657 164.233708,17.4148999 163.750578,17.8169306 C163.267448,18.219334 162.703242,18.4197905 162.059439,18.4197905 C160.641517,18.4197905 159.933297,17.9082166 159.933297,16.8850688 C159.933297,16.5560668 159.965135,16.2911512 160.029923,16.0899495 C160.09397,15.889493 160.166902,15.6879188 160.247239,15.4870897 C160.327205,15.2866332 160.399767,15.0574868 160.464554,14.8015136 C160.528972,14.5466581 160.561551,14.1807691 160.561551,13.705337 C160.561551,12.5357591 159.997714,11.9507838 158.870411,11.9507838 C158.354702,11.9507838 157.807525,12.1702427 157.227399,12.6087878 C156.647643,13.047333 156.10787,13.6870798 155.608821,14.5276557 C155.108661,15.3686042 154.690689,16.3828098 154.352683,17.5698997 C154.013937,18.7581074 153.844749,20.1191995 153.844749,21.6542939 L153.844749,34.2081611 L158.048905,34.2081611 L158.048905,34.9757082 L145.969176,34.9757082 L145.969176,34.2081611 Z" id="Fill-17" fill="#212121"></path>
                <g id="Group-21" transform="translate(163.634812, 10.668906)">
                    <mask id="mask-2" fill="white">
                        <use xlink:href="#path-1"></use>
                    </mask>
                    <g id="Clip-20"></g>
                    <path d="M15.1124524,9.94379702 C15.1764995,9.43222311 15.2090784,8.95679099 15.2090784,8.51824584 L15.2090784,7.14783882 C15.2090784,5.90597732 15.1043076,4.88208431 14.8947662,4.07765018 C14.6852248,3.27433383 14.3953469,2.6342144 14.0251324,2.15952747 C13.6545476,1.68484054 13.2039966,1.34652363 12.6719983,1.14494935 C12.1407405,0.944492863 11.5683889,0.843519425 10.9567945,0.843519425 C9.86132979,0.843519425 8.95911704,1.09017778 8.25089669,1.5834945 C7.54230612,2.07681122 6.97809921,2.74413014 6.55975682,3.58433346 C6.14104421,4.42565457 5.82673209,5.39365822 5.61793111,6.49020739 C5.40764927,7.58638397 5.27104012,8.73733212 5.20699301,9.94379702 L15.1124524,9.94379702 Z M5.1584949,10.7113442 C5.1584949,11.0772332 5.15035019,11.4513193 5.13443096,11.8350928 C5.11777131,12.2184938 5.1099968,12.7036134 5.1099968,13.2874709 C5.1099968,14.4939358 5.17441413,15.7547997 5.30361899,17.0704351 C5.43208343,18.3860706 5.71418688,19.5739057 6.14918893,20.6335679 C6.58419097,21.6943479 7.227994,22.5710656 8.08207887,23.2652114 C8.93468288,23.9597298 10.070501,24.3066164 11.4884226,24.3066164 C12.9056037,24.3066164 14.0732602,24.0696455 14.9917624,23.5942134 C15.9095242,23.1195265 16.6344042,22.5438661 17.1660322,21.8672323 C17.6972901,21.1913437 18.0915685,20.5061402 18.349608,19.8116218 C18.6069071,19.117476 18.8005293,18.5507579 18.9297342,18.1122127 L19.6546142,18.2765275 C19.557618,18.6789308 19.3721405,19.2545912 19.0989222,20.003136 C18.8245932,20.7527985 18.3899614,21.5024611 17.793916,22.2510059 C17.1978707,23.0002959 16.3926541,23.6582999 15.3782664,24.2246454 C14.3635084,24.7906182 13.0507278,25.0741636 11.4399245,25.0741636 C9.82912113,25.0741636 8.33937795,24.7813033 6.97069492,24.1970733 C5.60127146,23.6128432 4.41695525,22.7718947 3.41885693,21.6753455 C2.42038841,20.5791689 1.6470103,19.2724758 1.09946304,17.7556387 C0.551545573,16.2395467 0.278327267,14.5483348 0.278327267,12.6846111 C0.278327267,11.0772332 0.559690292,9.51456676 1.1238972,7.99735704 C1.68699347,6.48163769 2.46000136,5.13843016 3.44292088,3.96810704 C4.42547018,2.79890171 5.5768373,1.85735235 6.89813288,1.14494935 C8.21868802,0.432546359 9.63549894,0.0759722651 11.1500465,0.0759722651 C12.0515188,0.0759722651 13.0181489,0.259289354 14.0491963,0.624060553 C15.0798735,0.989949539 16.0379886,1.5834945 16.9246524,2.40581323 C17.8098353,3.22813196 18.5506345,4.31611143 19.1466799,5.66751607 C19.7427252,7.02003849 20.0411181,8.70193552 20.0411181,10.7113442 L5.1584949,10.7113442 Z" id="Fill-19" fill="#212121" mask="url(#mask-2)"></path>
                </g>
                <polygon id="Fill-22" fill="#212121" points="141.364633 40.0311986 143.098717 44.6845464 144.840206 40.0311986 145.842007 40.0311986 145.842007 45.568716 145.148595 45.568716 145.148595 40.9619427 145.133046 40.9619427 143.41451 45.568716 142.790329 45.568716 141.071793 40.9619427 141.056614 40.9619427 141.056614 45.568716 140.362832 45.568716 140.362832 40.0311986"></polygon>
                <path d="M149.872347,43.2808666 L148.954956,40.6980331 L148.939407,40.6980331 L148.007206,43.2808666 L149.872347,43.2808666 Z M149.363672,40.0310868 L151.513878,45.5689768 L150.704589,45.5689768 L150.103361,43.9012384 L147.776193,43.9012384 L147.159785,45.5689768 L146.411952,45.5689768 L148.554384,40.0310868 L149.363672,40.0310868 Z" id="Fill-24" fill="#212121"></path>
                <g id="Group-28" transform="translate(151.417734, 39.731371)">
                    <mask id="mask-4" fill="white">
                        <use xlink:href="#path-3"></use>
                    </mask>
                    <g id="Clip-27"></g>
                    <path d="M3.94889304,5.77158205 C3.63050857,5.89826459 3.30916238,5.96160586 2.9855949,5.96160586 C2.57465679,5.96160586 2.207404,5.88522374 1.88383652,5.7328321 C1.55989883,5.58006786 1.28519966,5.37476762 1.0589986,5.1161862 C0.832797535,4.85760478 0.661018003,4.5602734 0.542919575,4.22419207 C0.424450933,3.88811074 0.365586826,3.53936116 0.365586826,3.17719813 C0.365586826,2.77404957 0.420748788,2.39027599 0.531442926,2.02550479 C0.641396634,1.66110619 0.80614209,1.34179167 1.02456865,1.06756123 C1.24262499,0.793703379 1.51510287,0.575362294 1.84126185,0.412165373 C2.16742083,0.249713644 2.54911199,0.168115184 2.9855949,0.168115184 C3.28361757,0.168115184 3.5649806,0.203139181 3.82968397,0.272814578 C4.09401713,0.342489976 4.33021399,0.45240571 4.53864475,0.602189185 C4.74633509,0.752345255 4.92107634,0.942369067 5.06249828,1.17226062 C5.20392022,1.40252477 5.29980578,1.68048117 5.3512656,2.00612982 L4.61935152,2.00612982 C4.58344071,1.79412286 4.51643188,1.61192356 4.41906547,1.45953191 C4.32132884,1.30714027 4.20063891,1.18157551 4.05662547,1.08321025 C3.91261202,0.984844978 3.74971764,0.911443623 3.5675721,0.861888394 C3.38505635,0.813078356 3.19106395,0.788487039 2.9855949,0.788487039 C2.65166141,0.788487039 2.3654856,0.855926863 2.12632702,0.990061318 C1.88753867,1.12456837 1.69206541,1.30155133 1.54064767,1.5213828 C1.38922994,1.74121427 1.27742516,1.99159858 1.20560354,2.27365354 C1.13378193,2.55533589 1.09750091,2.84372497 1.09750091,3.13844818 C1.09750091,3.42795504 1.13859472,3.70591144 1.22115255,3.97231737 C1.30334017,4.2387233 1.4240301,4.4738312 1.58285213,4.67764105 C1.74241458,4.88219609 1.93862827,5.04539301 2.17260384,5.16648662 C2.40620919,5.28795282 2.67720621,5.34868592 2.9855949,5.34868592 C3.27325157,5.34868592 3.52758893,5.30211146 3.748607,5.20896253 C3.96962506,5.1161862 4.15584295,4.98801327 4.30726069,4.82518895 C4.45867842,4.66236463 4.57344492,4.47122303 4.65044954,4.25139156 C4.72745415,4.03156009 4.76040324,3.79496181 4.75040745,3.54196933 L2.9933694,3.54196933 L2.9933694,2.92159747 L5.40568713,2.92159747 L5.40568713,5.83753149 L4.94328921,5.83753149 L4.75040745,5.14711164 C4.5345724,5.4369911 4.26727752,5.64489951 3.94889304,5.77158205" id="Fill-26" fill="#212121" mask="url(#mask-4)"></path>
                </g>
                <path d="M161.085071,43.2808666 L160.167679,40.6980331 L160.15213,40.6980331 L159.21993,43.2808666 L161.085071,43.2808666 Z M160.576396,40.0310868 L162.726602,45.5689768 L161.917313,45.5689768 L161.316085,43.9012384 L158.988916,43.9012384 L158.372509,45.5689768 L157.624676,45.5689768 L159.767107,40.0310868 L160.576396,40.0310868 Z" id="Fill-29" fill="#212121"></path>
                <polygon id="Fill-31" fill="#212121" points="166.996212 40.6515704 163.836801 40.6515704 163.836801 40.0311986 167.859182 40.0311986 167.859182 40.6515704 164.445434 44.9483442 167.951736 44.9483442 167.951736 45.568716 163.574689 45.568716 163.574689 44.9483442"></polygon>
                <mask id="mask-6" fill="white">
                    <use xlink:href="#path-5"></use>
                </mask>
                <g id="Clip-34"></g>
                <polygon id="Fill-33" fill="#212121" mask="url(#mask-6)" points="169.485682 45.5688278 170.217967 45.5688278 170.217967 40.0313104 169.485682 40.0313104"></polygon>
                <polygon id="Fill-35" fill="#212121" mask="url(#mask-6)" points="172.22116 40.0311986 175.118459 44.5217221 175.134008 44.5217221 175.134008 40.0311986 175.82742 40.0311986 175.82742 45.568716 175.026276 45.568716 172.15193 41.1251396 172.136381 41.1251396 172.136381 45.568716 171.442599 45.568716 171.442599 40.0311986"></polygon>
                <polygon id="Fill-36" fill="#212121" mask="url(#mask-6)" points="181.553898 40.0311986 181.553898 40.6515704 178.486671 40.6515704 178.486671 42.4124578 181.345837 42.4124578 181.345837 43.0328296 178.486671 43.0328296 178.486671 44.9483442 181.576851 44.9483442 181.576851 45.568716 177.754757 45.568716 177.754757 40.0311986"></polygon>
            </g>
        </g>
    </g>
</svg>