<?xml version="1.0" encoding="utf-8"?>
<!-- Generator: Adobe Illustrator 20.1.0, SVG Export Plug-In . SVG Version: 6.00 Build 0)  -->
<svg version="1.1" id="Layer_1" xmlns="http://www.w3.org/2000/svg" xmlns:xlink="http://www.w3.org/1999/xlink" x="0px" y="0px"
	 viewBox="0 0 227 16" style="enable-background:new 0 0 227 16;" xml:space="preserve">
<style type="text/css">
	.st0{filter:url(#Adobe_OpacityMaskFilter);}
	.st1{fill:#FFFFFF;}
	.st2{mask:url(#mask-2);fill:#212121;}
	.st3{fill:#212121;}
	.st4{filter:url(#Adobe_OpacityMaskFilter_1_);}
	.st5{mask:url(#mask-4);fill:#212121;}
	.st6{filter:url(#Adobe_OpacityMaskFilter_2_);}
	.st7{mask:url(#mask-6);fill:#212121;}
	.st8{filter:url(#Adobe_OpacityMaskFilter_3_);}
	.st9{mask:url(#mask-8);fill:#212121;}
</style>
<title>Baltimore Sun</title>
<desc>Created with Sketch.</desc>
<g id="Group-3" transform="translate(0.000000, 0.567125)">
	<g id="Clip-2">
	</g>
	<defs>
		<filter id="Adobe_OpacityMaskFilter" filterUnits="userSpaceOnUse" x="0" y="0" width="13.1" height="14.8">
			<feColorMatrix  type="matrix" values="1 0 0 0 0  0 1 0 0 0  0 0 1 0 0  0 0 0 1 0"/>
		</filter>
	</defs>
	<mask maskUnits="userSpaceOnUse" x="0" y="0" width="13.1" height="14.8" id="mask-2">
		<g class="st0">
			<polygon id="path-1" class="st1" points="0,0 0,14.8 13.1,14.8 13.1,0 			"/>
		</g>
	</mask>
	<path id="Fill-1" class="st2" d="M4.3,0.3c-0.5,0-1,0.1-1.4,0.2C2.5,0.6,2.1,0.7,1.8,1C1.5,1.3,1.2,1.6,1,2.1
		c-0.2,0.5-0.5,1-0.7,1.7H0V0h13.1v3.8h-0.3c-0.2-0.7-0.4-1.3-0.7-1.7c-0.2-0.5-0.5-0.8-0.9-1.1c-0.3-0.3-0.7-0.4-1.1-0.5
		C9.8,0.4,9.3,0.3,8.8,0.3H8v14.2H10v0.3H3.1v-0.3H5V0.3H4.3z"/>
</g>
<polygon id="Fill-4" class="st3" points="20.5,0.6 20.5,0.9 18.6,0.9 18.6,7.7 24.6,7.7 24.6,0.9 22.7,0.9 22.7,0.6 29.5,0.6 
	29.5,0.9 27.6,0.9 27.6,15.1 29.5,15.1 29.5,15.4 22.7,15.4 22.7,15.1 24.6,15.1 24.6,8 18.6,8 18.6,15.1 20.5,15.1 20.5,15.4 
	13.6,15.4 13.6,15.1 15.5,15.1 15.5,0.9 13.6,0.9 13.6,0.6 "/>
<path id="Fill-6" class="st3" d="M42.5,0.6v3.6h-0.3c-0.1-0.2-0.2-0.5-0.4-0.9c-0.2-0.4-0.4-0.7-0.7-1.1c-0.3-0.3-0.7-0.6-1.2-0.9
	c-0.5-0.3-1-0.4-1.7-0.4H35v6.4h1.2c0.5,0,0.9-0.1,1.3-0.2c0.4-0.1,0.6-0.4,0.9-0.6c0.2-0.3,0.4-0.6,0.6-1c0.2-0.4,0.3-0.8,0.4-1.3
	h0.3v6.5h-0.3c-0.1-0.4-0.2-0.8-0.3-1.2c-0.1-0.4-0.3-0.7-0.5-1c-0.2-0.3-0.5-0.5-0.8-0.7c-0.3-0.2-0.7-0.3-1.2-0.3H35v7.5h3.4
	c0.6,0,1.2-0.1,1.7-0.3c0.5-0.2,1-0.5,1.4-0.9c0.4-0.4,0.7-0.8,1-1.4c0.3-0.5,0.5-1.1,0.6-1.7h0.3v4.6H30v-0.3h1.9V0.9H30V0.6H42.5z
	"/>
<path id="Fill-8" class="st3" d="M58.3,15.2c0.4,0,0.8-0.1,1.2-0.2c0.4-0.1,0.7-0.3,0.9-0.6c0.2-0.3,0.4-0.7,0.6-1.2
	c0.1-0.5,0.2-1.2,0.2-2.1c0-0.2,0-0.6-0.1-0.9c0-0.4-0.2-0.8-0.3-1.2c-0.2-0.4-0.5-0.7-0.9-1c-0.4-0.3-0.9-0.4-1.6-0.4h-1.2v7.5
	C57.4,15.2,57.8,15.2,58.3,15.2L58.3,15.2z M57.9,7.3c0.6,0,1.1-0.1,1.5-0.2c0.4-0.2,0.6-0.4,0.8-0.7c0.2-0.3,0.3-0.6,0.3-1
	c0-0.4,0.1-0.7,0.1-1.1c0-0.6,0-1.1-0.1-1.6c-0.1-0.4-0.2-0.8-0.4-1.1c-0.2-0.3-0.5-0.5-0.8-0.6c-0.3-0.1-0.8-0.2-1.3-0.2
	c-0.2,0-0.3,0-0.5,0s-0.3,0-0.5,0v6.4H57.9z M52.1,0.9V0.6h3.1c0.6,0,1.2,0,1.7,0c0.6,0,1.1,0,1.7,0c0.5,0,1.1,0.1,1.7,0.2
	C61,0.8,61.6,1,62.1,1.2c0.5,0.3,0.9,0.6,1.2,1.1c0.3,0.4,0.5,1,0.5,1.7c0,0.6-0.2,1.1-0.5,1.5c-0.3,0.4-0.7,0.7-1.1,1
	c-0.4,0.3-0.9,0.5-1.4,0.6c-0.5,0.1-0.9,0.2-1.2,0.3v0.1c0.5,0,1.1,0.1,1.7,0.3c0.6,0.1,1.1,0.4,1.6,0.7c0.5,0.3,0.9,0.7,1.2,1.2
	c0.3,0.5,0.5,1.1,0.5,1.8c0,0.8-0.2,1.5-0.6,2c-0.4,0.5-0.9,0.9-1.5,1.2c-0.6,0.3-1.2,0.5-1.9,0.6c-0.7,0.1-1.3,0.2-1.8,0.2
	c-0.6,0-1.2,0-1.7,0c-0.6,0-1.2,0-1.7,0h-3.1v-0.3H54V0.9H52.1z"/>
<path id="Fill-10" class="st3" d="M67.8,9.2h4.8l-2.5-5.7L67.8,9.2z M65.1,15.1L71.3,0h0.6l6.6,15.1h1.8v0.3h-7v-0.3h1.9l-2.4-5.6
	h-5l-2.3,5.6h1.9v0.3h-3.9v-0.3H65.1z"/>
<path id="Fill-12" class="st3" d="M87.3,0.6v0.3h-1.9v14.2h3.4c0.5,0,0.9-0.1,1.4-0.2c0.5-0.2,0.9-0.4,1.3-0.8
	c0.4-0.4,0.8-0.8,1.1-1.4c0.3-0.6,0.6-1.2,0.8-2.1h0.3v4.7H80.5v-0.3h1.9V0.9h-1.9V0.6H87.3z"/>
<path id="Fill-14" class="st3" d="M95.8,0.9c-0.5,0-1,0.1-1.4,0.2c-0.4,0.1-0.8,0.3-1.1,0.5c-0.3,0.3-0.6,0.6-0.9,1.1
	c-0.2,0.5-0.5,1-0.7,1.7h-0.3V0.6h13.1v3.8h-0.3c-0.2-0.7-0.4-1.3-0.7-1.7c-0.2-0.5-0.5-0.8-0.9-1.1c-0.3-0.3-0.7-0.4-1.1-0.5
	c-0.4-0.1-0.9-0.2-1.4-0.2h-0.7v14.2h1.9v0.3h-6.9v-0.3h1.9V0.9H95.8z"/>
<polygon id="Fill-16" class="st3" points="112,0.6 112,0.9 110.1,0.9 110.1,15.1 112,15.1 112,15.4 105.2,15.4 105.2,15.1 
	107.1,15.1 107.1,0.9 105.2,0.9 105.2,0.6 "/>
<polygon id="Fill-18" class="st3" points="117.9,0.6 121.5,11 121.6,11 125.2,0.6 130.5,0.6 130.5,0.9 128.5,0.9 128.5,15.1 
	130.5,15.1 130.5,15.4 123.6,15.4 123.6,15.1 125.5,15.1 125.5,0.9 125.5,0.9 120.4,15.4 120,15.4 114.9,0.9 114.8,0.9 114.8,15.1 
	116.8,15.1 116.8,15.4 112.6,15.4 112.6,15.1 114.5,15.1 114.5,0.9 112.6,0.9 112.6,0.6 "/>
<path id="Fill-20" class="st3" d="M134.7,11.6c0.2,1,0.4,1.7,0.8,2.3c0.4,0.6,0.8,1,1.4,1.2c0.6,0.2,1.2,0.3,2,0.3
	c1,0,1.8-0.2,2.4-0.6c0.6-0.4,1-0.9,1.3-1.6s0.5-1.5,0.6-2.4c0.1-0.9,0.1-1.9,0.1-3c0-1,0-1.9-0.1-2.8c-0.1-0.9-0.2-1.7-0.5-2.3
	c-0.3-0.7-0.7-1.2-1.3-1.6c-0.6-0.4-1.4-0.6-2.4-0.6c-1,0-1.7,0.2-2.3,0.6c-0.6,0.4-1,0.9-1.3,1.6c-0.3,0.7-0.5,1.5-0.6,2.4
	c-0.1,0.9-0.1,1.9-0.1,3C134.5,9.5,134.5,10.7,134.7,11.6 M131.8,4.8c0.5-1,1.1-1.8,1.8-2.5c0.7-0.7,1.6-1.2,2.5-1.6
	c0.9-0.4,1.8-0.6,2.7-0.6c1,0,1.9,0.2,2.8,0.5c0.9,0.4,1.8,0.9,2.5,1.5c0.7,0.7,1.3,1.5,1.8,2.4c0.5,1,0.7,2,0.7,3.2
	c0,1-0.2,2-0.6,3c-0.4,0.9-1,1.8-1.7,2.5c-0.7,0.7-1.5,1.3-2.5,1.7c-0.9,0.4-1.9,0.6-3,0.6c-1,0-2-0.2-3-0.6
	c-0.9-0.4-1.8-0.9-2.5-1.6c-0.7-0.7-1.3-1.5-1.7-2.4c-0.4-0.9-0.6-1.9-0.6-3C131.1,6.9,131.3,5.8,131.8,4.8"/>
<g id="Group-24" transform="translate(147.230767, 0.158150)">
	<g id="Clip-23">
	</g>
	<defs>
		<filter id="Adobe_OpacityMaskFilter_1_" filterUnits="userSpaceOnUse" x="0" y="0.4" width="14.8" height="15.2">
			<feColorMatrix  type="matrix" values="1 0 0 0 0  0 1 0 0 0  0 0 1 0 0  0 0 0 1 0"/>
		</filter>
	</defs>
	<mask maskUnits="userSpaceOnUse" x="0" y="0.4" width="14.8" height="15.2" id="mask-4">
		<g class="st4">
			<polygon id="path-3" class="st1" points="0,15.5 14.8,15.5 14.8,0.4 0,0.4 			"/>
		</g>
	</mask>
	<path id="Fill-22" class="st5" d="M5.8,7.2c0.6,0,1.1-0.1,1.5-0.2c0.4-0.2,0.6-0.4,0.8-0.7c0.2-0.3,0.3-0.6,0.3-1s0.1-0.7,0.1-1.1
		c0-0.6,0-1.1-0.1-1.6C8.3,2.1,8.2,1.8,8,1.5C7.8,1.2,7.5,1,7.2,0.9C6.9,0.7,6.4,0.7,5.9,0.7c-0.2,0-0.3,0-0.5,0c-0.2,0-0.3,0-0.5,0
		v6.4H5.8z M0,0.7V0.4h3.1c0.6,0,1.2,0,1.7,0c0.6,0,1.1,0,1.7,0c0.5,0,1.1,0.1,1.7,0.2C9,0.6,9.5,0.8,10,1.1
		c0.5,0.3,0.9,0.6,1.2,1.1c0.3,0.5,0.5,1,0.5,1.7c0,0.6-0.1,1-0.4,1.4c-0.2,0.4-0.6,0.7-1,1C10,6.6,9.6,6.8,9.1,6.9
		C8.6,7,8.1,7.1,7.6,7.2v0.1c0.7,0.1,1.3,0.2,1.8,0.4c0.5,0.1,1,0.3,1.4,0.6c0.4,0.2,0.7,0.6,0.9,1c0.2,0.4,0.4,1,0.4,1.8
		c0.1,0.9,0.1,1.6,0.2,2.1c0,0.5,0.1,0.9,0.2,1.2c0.1,0.3,0.2,0.5,0.3,0.6c0.1,0.1,0.3,0.1,0.6,0.1c0.3,0,0.5-0.1,0.7-0.2
		c0.2-0.2,0.3-0.3,0.5-0.4l0.2,0.2c-0.1,0.1-0.3,0.3-0.4,0.4c-0.1,0.1-0.3,0.2-0.5,0.3c-0.2,0.1-0.4,0.1-0.6,0.2
		c-0.2,0-0.6,0.1-0.9,0.1c-0.8,0-1.4-0.1-1.8-0.4c-0.4-0.2-0.7-0.5-1-0.9c-0.2-0.4-0.3-0.8-0.4-1.2c0-0.4-0.1-0.8-0.1-1.2
		c0-0.6-0.1-1.1-0.1-1.7c0-0.5-0.2-1-0.3-1.4c-0.2-0.4-0.5-0.7-0.8-1C7.5,7.6,7,7.4,6.4,7.4H5V15h1.9v0.3H0V15H2V0.7H0z"/>
</g>
<path id="Fill-25" class="st3" d="M175.5,0.6v3.6h-0.3c-0.1-0.2-0.2-0.5-0.4-0.9c-0.2-0.4-0.4-0.7-0.7-1.1c-0.3-0.3-0.7-0.6-1.2-0.9
	c-0.5-0.3-1-0.4-1.7-0.4h-3.3v6.4h1.2c0.5,0,0.9-0.1,1.3-0.2c0.4-0.1,0.6-0.4,0.9-0.6c0.2-0.3,0.4-0.6,0.6-1
	c0.2-0.4,0.3-0.8,0.4-1.3h0.3v6.5h-0.3c-0.1-0.4-0.2-0.8-0.3-1.2c-0.1-0.4-0.3-0.7-0.5-1c-0.2-0.3-0.5-0.5-0.8-0.7
	c-0.3-0.2-0.7-0.3-1.2-0.3h-1.4v7.5h3.4c0.6,0,1.2-0.1,1.7-0.3c0.5-0.2,1-0.5,1.4-0.9c0.4-0.4,0.7-0.8,1-1.4
	c0.3-0.5,0.5-1.1,0.6-1.7h0.3v4.6H163v-0.3h1.9V0.9H163V0.6H175.5z"/>
<g id="Group-29" transform="translate(185.674357, 0.158150)">
	<g id="Clip-28">
	</g>
	<defs>
		<filter id="Adobe_OpacityMaskFilter_2_" filterUnits="userSpaceOnUse" x="0" y="0.1" width="10.8" height="15.4">
			<feColorMatrix  type="matrix" values="1 0 0 0 0  0 1 0 0 0  0 0 1 0 0  0 0 0 1 0"/>
		</filter>
	</defs>
	<mask maskUnits="userSpaceOnUse" x="0" y="0.1" width="10.8" height="15.4" id="mask-6">
		<g class="st6">
			<polygon id="path-5" class="st1" points="0,15.5 10.8,15.5 10.8,0.1 0,0.1 			"/>
		</g>
	</mask>
	<path id="Fill-27" class="st7" d="M0.3,10.6c0,0.2,0.1,0.4,0.1,0.7c0.1,0.3,0.2,0.6,0.3,0.9c0.1,0.3,0.3,0.6,0.5,1
		C1.5,13.4,1.7,13.7,2,14c0.3,0.3,0.6,0.6,0.9,0.7c0.3,0.2,0.6,0.3,0.9,0.4c0.3,0.1,0.5,0.1,0.8,0.1c0.2,0,0.5,0,0.7,0
		c0.7,0,1.3-0.1,1.8-0.3c0.5-0.2,0.8-0.5,1.1-0.8c0.3-0.3,0.5-0.7,0.6-1.1c0.1-0.4,0.2-0.7,0.2-1c0-0.5-0.1-0.9-0.4-1.3
		c-0.2-0.3-0.6-0.6-1-0.8C7.2,9.7,6.7,9.5,6.2,9.4c-0.5-0.2-1-0.3-1.6-0.5S3.5,8.6,3,8.3s-1-0.5-1.4-0.8c-0.4-0.3-0.7-0.8-1-1.3
		C0.4,5.8,0.3,5.1,0.3,4.4c0-0.6,0.1-1.1,0.4-1.6c0.2-0.5,0.6-1,1-1.4s1-0.7,1.6-1c0.6-0.2,1.3-0.4,2-0.4c0.5,0,0.9,0,1.2,0.1
		c0.3,0.1,0.7,0.2,0.9,0.3C7.7,0.6,8,0.7,8.2,0.7c0.2,0.1,0.4,0.1,0.6,0.1c0.2,0,0.3,0,0.4-0.1c0.1-0.1,0.1-0.2,0.2-0.3h0.3v4H9.4
		C9.2,3.9,9,3.4,8.8,2.9C8.6,2.5,8.4,2,8.1,1.7C7.8,1.3,7.5,1,7,0.7C6.6,0.5,6,0.4,5.3,0.4c-0.6,0-1,0.1-1.5,0.2
		C3.4,0.8,3.1,1,2.8,1.2C2.5,1.5,2.3,1.7,2.1,2C2,2.4,1.9,2.7,1.9,3c0,0.5,0.1,0.9,0.4,1.2c0.3,0.3,0.6,0.6,1,0.8
		c0.4,0.2,0.9,0.4,1.4,0.6c0.5,0.2,1.1,0.3,1.6,0.5C6.9,6.3,7.5,6.5,8,6.7c0.5,0.2,1,0.5,1.4,0.8c0.4,0.3,0.8,0.7,1,1.2
		c0.3,0.5,0.4,1.1,0.4,1.7c0,0.7-0.1,1.3-0.4,1.9C10.1,13,9.7,13.6,9.2,14c-0.5,0.5-1.1,0.8-1.8,1.1c-0.7,0.3-1.5,0.4-2.3,0.4
		c-0.4,0-0.9,0-1.3-0.1c-0.4-0.1-0.8-0.2-1.2-0.3c-0.4-0.1-0.7-0.2-1-0.3c-0.3-0.1-0.5-0.1-0.6-0.1c-0.2,0-0.3,0-0.4,0.1
		c-0.1,0.1-0.2,0.2-0.2,0.4H0v-4.6H0.3z"/>
</g>
<g id="Group-32" transform="translate(197.534613, 0.567125)">
	<path id="Fill-30" class="st3" d="M6.9,0v0.3H5v9.3c0,0.7,0,1.3,0.1,1.9c0.1,0.6,0.2,1.2,0.4,1.7c0.2,0.5,0.6,0.9,1,1.2
		c0.5,0.3,1.1,0.4,1.8,0.4c0.7,0,1.4-0.1,1.9-0.3c0.5-0.2,0.9-0.4,1.3-0.7c0.3-0.3,0.6-0.6,0.8-1c0.2-0.4,0.3-0.7,0.4-1.1
		c0.1-0.4,0.1-0.7,0.1-1c0-0.3,0-0.6,0-0.8V0.3h-1.9V0h4.2v0.3h-1.9v9.8c0,0.2,0,0.5,0,0.8c0,0.3-0.1,0.7-0.2,1.1
		c-0.1,0.4-0.2,0.7-0.4,1.1c-0.2,0.4-0.5,0.7-0.9,1c-0.4,0.3-0.8,0.5-1.4,0.7S9,15.1,8.2,15.1c-1.3,0-2.4-0.1-3.2-0.4
		C4.1,14.4,3.5,14,3,13.5s-0.7-1-0.9-1.6S2,10.7,2,10V0.3H0V0H6.9z"/>
</g>
<g id="Group-35" transform="translate(212.666664, 0.567125)">
	<g id="Clip-34">
	</g>
	<defs>
		<filter id="Adobe_OpacityMaskFilter_3_" filterUnits="userSpaceOnUse" x="0.1" y="0" width="14.1" height="14.8">
			<feColorMatrix  type="matrix" values="1 0 0 0 0  0 1 0 0 0  0 0 1 0 0  0 0 0 1 0"/>
		</filter>
	</defs>
	<mask maskUnits="userSpaceOnUse" x="0.1" y="0" width="14.1" height="14.8" id="mask-8">
		<g class="st8">
			<polygon id="path-7" class="st1" points="14.3,14.8 14.3,0 0.1,0 0.1,14.8 			"/>
		</g>
	</mask>
	<polygon id="Fill-33" class="st9" points="5.1,0 12,9.9 12,9.9 12,0.3 10.1,0.3 10.1,0 14.3,0 14.3,0.3 12.4,0.3 12.4,14.8 
		11.8,14.8 2.4,1.5 2.4,1.5 2.4,14.5 4.3,14.5 4.3,14.8 0.1,14.8 0.1,14.5 2.1,14.5 2.1,0.3 0.1,0.3 0.1,0 	"/>
</g>
</svg>
