<?xml version="1.0" encoding="utf-8"?>
<!-- Generator: Adobe Illustrator 20.1.0, SVG Export Plug-In . SVG Version: 6.00 Build 0)  -->
<svg version="1.1" id="Layer_1" xmlns="http://www.w3.org/2000/svg" xmlns:xlink="http://www.w3.org/1999/xlink" x="0px" y="0px"
	 viewBox="0 0 227 34" style="enable-background:new 0 0 227 34;" xml:space="preserve">
<style type="text/css">
	.st0{filter:url(#Adobe_OpacityMaskFilter);}
	.st1{fill:#FFFFFF;}
	.st2{mask:url(#mask-2);fill:#212121;}
</style>
<title>Washington Post</title>
<desc>Created with Sketch.</desc>
<g id="Clip-2">
</g>
<defs>
	<filter id="Adobe_OpacityMaskFilter" filterUnits="userSpaceOnUse" x="0" y="0" width="226.6" height="33.5">
		<feColorMatrix  type="matrix" values="1 0 0 0 0  0 1 0 0 0  0 0 1 0 0  0 0 0 1 0"/>
	</filter>
</defs>
<mask maskUnits="userSpaceOnUse" x="0" y="0" width="226.6" height="33.5" id="mask-2">
	<g class="st0">
		<polygon id="path-1" class="st1" points="226.6,33.5 0,33.5 0,0 226.6,0 		"/>
	</g>
</mask>
<path id="Fill-1" class="st2" d="M60.3,9.7l1.2-1l2.6,2.6v12l-1,1.1l-2.7-2.7V9.7z M212.2,19.1h2.4v4.3c-0.5-0.2-0.8-0.3-1-0.3
	c-0.2,0-0.7-0.1-1.4-0.1c-0.5,0-0.9,0-1.2,0.1s-0.8,0.2-1.2,0.4L212.2,19.1z M214.7,12.8c0.3,0,0.6-0.1,0.8-0.2l-2.2,4.1h-1.7v-4.4
	c0.7,0.4,1.4,0.6,2.2,0.6C214.1,12.9,214.4,12.9,214.7,12.8L214.7,12.8z M51.7,9.7l1.2-1l2.5,2.6v12l-1,1.1l-2.7-2.7V9.7z
	 M199.8,12.8l2.6,1.9v7.8l-0.8,0.9l-1.8-1.5V12.8z M12,10.6c0.2,0,0.4,0,0.5-0.1v12.2c-0.9,0.4-1.7,0.6-2.7,0.6
	c-0.5,0-1.1-0.1-1.6-0.2c-0.5-0.1-1-0.3-1.3-0.5l3.7-3.8v-8.4c0.2,0.1,0.3,0.1,0.5,0.2c0.2,0,0.3,0,0.4,0H12z M186.8,9.1l2-1.3
	l1.4,1.1v12.6c-0.7-0.4-1-0.6-1.1-0.6c-0.1,0-0.3-0.1-0.7-0.2c-0.5-0.1-1.1-0.3-1.6-0.4V9.1z M185.4,10.2l0.7-0.6v19.1l-0.7-0.4
	V10.2z M86.6,19.3H89v4.3c-0.5-0.2-0.8-0.3-1-0.3c-0.2,0-0.7,0-1.4,0c-0.5,0-0.9,0-1.2,0.1c-0.3,0.1-0.8,0.2-1.2,0.4L86.6,19.3z
	 M152.3,12.5l2.6,2v7.8l-0.8,0.9l-1.7-1.6V12.5z M89.9,12.8l-2.2,4.1H86v-4.4c0.7,0.4,1.4,0.6,2.1,0.6C88.8,13.1,89.3,13,89.9,12.8
	L89.9,12.8z M33.9,18.3v-4.9l2.4,3.1L33.9,18.3z M132.6,12.4l2.5,1.9v7.6l-0.7,0.8l-1.8-1.8V12.4z M136.8,26.6
	c0.5,0.4,0.8,0.9,0.8,1.4c0,0.3,0,0.5-0.1,0.6c-0.1,0.2-0.2,0.3-0.3,0.4c-0.2,0.2-0.4,0.3-0.7,0.3c-0.3,0-0.7-0.1-1.1-0.4
	c-0.5-0.3-1.1-0.5-2.1-0.5c-0.6,0-1.1,0.1-1.6,0.2c-0.5,0.1-1,0.3-1.5,0.6l4.8-6v0.8c0,0.4,0,0.8,0.1,1.1c0.1,0.3,0.2,0.6,0.5,0.8
	C136.1,26.1,136.4,26.4,136.8,26.6L136.8,26.6z M73.5,12.8l2.6,1.9v7.8l-0.8,0.9L73.5,22V12.8z M218.6,12.5h1.9v11.6l-0.5,0.9h1.1
	l2.4,1.9l3.1-3.6h-1.3l-0.9-1v-9.6l1.9-2.4h-1.9V3.9l-3.9,3.7v2.5L218.6,12.5z M214.2,9.9c-0.3-0.2-0.7-0.4-1.2-0.7l-5.3,3.8v6.5
	l0.5,0.4h3.2l-4.1,7.3c0.5-0.4,0.8-0.7,1.1-0.9c0.6-0.4,1.2-0.6,2-0.6c0.7,0,1.2,0.1,1.7,0.3c0.4,0.2,0.9,0.5,1.3,0.9l5.2-4.2v-6.6
	l-0.4-0.4h-3.5v-0.3l3.1-5.6c-0.3,0.2-0.6,0.3-0.8,0.4c-0.2,0-0.5,0-0.9,0h-0.7C214.9,10.2,214.5,10.1,214.2,9.9L214.2,9.9z
	 M195.4,24.2l4.1,2.9l7.1-5.1v-9.8l-0.7,0.1l-3.4-2.9l-6.4,4.6v9.6L195.4,24.2z M181.1,7.2v3.1c-0.6,0-1,0.1-1.4,0.2
	c-0.4,0.1-0.8,0.4-1.1,0.7c-0.4,0.4-0.6,0.8-0.6,1.2c-0.1,0.5-0.1,1.1-0.1,1.8c0,0.3,0,0.5,0,0.6c0.5-0.8,1.1-1.1,2-1
	c0.6,0.1,1,0.3,1.3,0.7v5.2c-1,0.5-1.9,1.2-2.6,2.1c-0.8,1-1.4,2-1.7,3.1c0.5-0.4,0.9-0.6,1.2-0.8s0.8-0.3,1.4-0.5
	c0.2-0.1,0.5-0.1,0.8-0.2c0.3-0.1,0.6-0.1,1-0.1v10l4.3-3.6l1.4,1.1v-5.7l1.8,0.6l6.2-4.4V6.8l-4-3.3L186.8,7V5.2L186,4.5v2.9
	l-0.7,0.5V4.9L182,2.2l-4,4c0.3-0.2,0.7-0.3,1-0.3c0.3,0,0.6,0,0.8,0.1C180.5,6.3,180.9,6.7,181.1,7.2L181.1,7.2z M147.9,23.8
	l4.1,2.9l7.1-5.1v-9.9l-0.7,0.2l-3.4-2.9l-6.4,4.6v9.6L147.9,23.8z M139.6,12.4h1.9V24l-0.5,0.9h1.1l2.4,1.9l3.1-3.6h-1.3l-0.9-1
	v-9.6l1.9-2.4h-1.9V3.8l-3.9,3.7V10L139.6,12.4z M128.3,23.8c0.4,0,0.8,0.1,1.2,0.2c0.4,0.1,0.7,0.3,1.1,0.6s0.6,0.5,0.8,0.8
	c0.2,0.3,0.3,0.6,0.4,1.1l-1.7,2.2l-1.8,2.5c0.5-0.3,0.9-0.4,1.2-0.5c0.3-0.1,0.8-0.1,1.4-0.1c0.7,0.1,1.4,0.2,1.9,0.5
	c0.5,0.3,1,0.7,1.4,1.3c1-0.4,2.3-1.3,3.6-2.7c1.4-1.4,2.1-2.5,2.1-3.4c0-0.2-0.2-0.6-0.5-1.4c-0.3-0.8-0.5-1.7-0.5-2.5V11.9
	L134.4,9l-5.7,4.2v9.9L128.3,23.8z M166.8,23.8l-0.9-1.2V14l0.8-0.4l1.7,1.9v8.4l3,2.7l2.9-3.4H173l-0.8-1.3v-9.1l0.4-0.8l-0.8,0.1
	l-3-2.4l-2.9,3.1l-3.4-2.8l-2.8,3.3h1.1l0.9,1.1v8.4l-1.2,1.6l3.6,2.4L166.8,23.8z M107.9,14.9v9.1l-0.6,1h1.1l2.6,2.2l2.7-2.5
	l3.4,2.8l3-3.4l-0.9-1.2v-8.5L120,14l1.7,1.9v8.4l3,2.7l2.9-3.4h-1.4l-0.8-1.3v-9.1l0.4-0.8l-0.8,0.2l-3-2.4l-2.9,3.1l-3.4-2.8
	l-2.8,3.3h1.1l0.9,1.1v8.4l-1.9,0.7l-1.2-1v-9.4l0.4-0.6l-3.4-2.6l-2.8,3l0.9,0.3L107.9,14.9z M112.6,7.4l-2.9-2.4l-2.4,2.7l2.5,2.3
	L112.6,7.4z M96.8,27.2l2.9-3.3l-1.4-1.5v-8.7l0.8-0.6l2.3,1.8v11.5c0,0.7,0,1.2-0.1,1.7c-0.1,0.4-0.3,0.8-0.5,1.2
	c-0.2,0.2-0.4,0.5-0.7,1c-0.4,0.5-0.9,0.8-1.4,1.1c1-0.1,1.9-0.3,2.7-0.8c0.8-0.4,1.5-1,2.2-1.8c0.5-0.6,0.9-1.2,1.2-1.9
	c0.3-0.7,0.5-1.3,0.6-2V11.9l-0.9,0.1l-3.1-2.1l-2.2,1.8l-0.7-0.4V5l-0.6-1.5l-2.9,2.9V23l-0.9,1L96.8,27.2z M88.5,10.1
	c-0.4-0.2-0.7-0.4-1.2-0.8L82,13.2v6.5l0.5,0.4h3.2l-4.1,7.3c0.6-0.6,1.1-0.9,1.5-1.1c0.5-0.2,1-0.4,1.6-0.4c0.7,0,1.3,0.1,1.7,0.3
	c0.4,0.2,0.9,0.5,1.3,0.9l5.2-4.2v-6.6l-0.4-0.4H89v-0.3l3.1-5.6c-0.3,0.2-0.6,0.3-0.8,0.4c-0.2,0-0.5,0-0.9,0h-0.7
	C89.3,10.3,88.9,10.2,88.5,10.1L88.5,10.1z M69,24.2l4.1,2.9l2.9-2.8l3.5,2.5l3-3.3h-1L80.1,22v-9.8l-0.7,0.1L76,9.4L69.6,14v9.6
	L69,24.2z M47.2,7.1v6.3c-0.4,0-0.8,0.1-1.1,0.2c-0.3,0.1-0.6,0.3-0.9,0.6c-0.9,0.7-1.3,1.6-1.3,2.7c0,0.2,0,0.4,0,0.5
	c0,0.2,0.1,0.3,0.1,0.5c0.3-0.3,0.6-0.4,0.9-0.5c0.3-0.1,0.7-0.1,1.1-0.1c0.2,0,0.4,0,0.5,0.1s0.3,0.1,0.6,0.3v6.2l4.5,4.7l4.2-4.3
	l5,4.3l7.3-7.2V8.7l-4.5-3.6l-3.3,3.1l-4.5-3.1l-4.1,3.5v-2c0-0.7-0.5-1.4-1.4-2.3c-0.3-0.2-0.6-0.4-0.8-0.6
	c-0.3-0.2-0.4-0.5-0.4-0.9c0-0.4-0.1-0.7-0.1-1c0-0.8,0.3-1.4,0.8-1.8C49.4,0,49.3,0,49.1,0c-1,0-1.8,0.4-2.6,1.3
	c-0.8,0.8-1.1,1.8-1.1,2.8c0,0.2,0,0.4,0.1,0.6C45.7,5.8,46.2,6.6,47.2,7.1L47.2,7.1z M29.6,24l5.3,3.4l5-5.4l-2.7,2l-3.3-2.4v-2.3
	l6-4.6L36,9.5L30,13.8v9.5L29.6,24z M19.9,27.6l2.8-3.3l-1.4-1.5v-8.7l0.8-0.6l2.3,1.8v11.5c0,0.6,0,1.2-0.1,1.7
	c-0.1,0.5-0.2,0.9-0.5,1.2c-0.2,0.2-0.4,0.6-0.8,1c-0.4,0.5-0.8,0.8-1.4,1.1c1.1-0.1,2-0.4,2.7-0.8c0.7-0.4,1.4-1,2.2-1.9
	c0.5-0.6,1-1.3,1.2-1.9c0.3-0.6,0.5-1.3,0.5-2V12.4l-1,0.1l-3.1-2.1L22,12.3l-0.7-0.4V5.5l-0.7-1.4L17.7,7v16.5l-0.9,1.1L19.9,27.6z
	 M4,8.9c0.2,0,0.4,0,0.8,0.1C5,9.1,5.3,9.2,5.6,9.2c-1.8,0.8-3.3,2.2-4.3,4.1C0.4,15.1,0,16.9,0,18.9c0,2.5,0.8,4.6,2.5,6.3
	c1.7,1.8,3.7,2.6,6.1,2.6c2.3,0,4.3-0.9,5.9-2.7c1.6-1.8,2.4-3.9,2.4-6.4c-0.2,0.5-0.5,0.9-0.7,1.3c-0.3,0.3-0.7,0.7-1.2,1.2
	c-0.3,0.3-0.6,0.5-0.9,0.7c-0.3,0.1-0.6,0.3-1,0.5V10.2c0.5-0.2,0.9-0.5,1.3-0.7c0.3-0.2,0.7-0.6,1-1c1-1.1,1.5-2.3,1.6-3.7
	c-0.7,0.5-1.3,0.8-1.9,1c-0.6,0.2-1.2,0.4-1.9,0.4c-0.1,0-0.3,0-0.5,0c-0.8,0-1.9-0.3-3.4-0.9S6.6,4.5,5.7,4.5C4,4.5,2.6,5.4,1.6,7
	c-0.9,1.5-1.4,3.2-1.4,5.3c0.1-0.6,0.4-1.2,0.9-1.8c0.3-0.4,0.8-0.8,1.3-1.1C2.9,9.1,3.4,8.9,4,8.9L4,8.9z M4.3,12.4
	c0.4-1.2,1.1-2.2,1.8-2.9c0.1,0,0.2-0.1,0.3-0.1c0.1,0,0.4,0,0.8,0c0.2,0,0.5,0,0.6,0.1c0.2,0,0.4,0.1,0.6,0.2
	c0.2,0.1,0.4,0.2,0.7,0.4l-3.3,2.7l0.8,0.6v9c-0.9-0.4-1.5-1.1-2-1.9c-0.7-1.2-1-2.7-1-4.7C3.6,14.8,3.8,13.7,4.3,12.4L4.3,12.4z"/>
</svg>
