<?xml version="1.0" encoding="utf-8"?>
<!-- Generator: Adobe Illustrator 20.1.0, SVG Export Plug-In . SVG Version: 6.00 Build 0)  -->
<svg version="1.1" id="Layer_1" xmlns="http://www.w3.org/2000/svg" xmlns:xlink="http://www.w3.org/1999/xlink" x="0px" y="0px"
	 viewBox="0 0 65 63" style="enable-background:new 0 0 65 63;" xml:space="preserve">
<style type="text/css">
	.st0{fill:#212121;}
	.st1{filter:url(#Adobe_OpacityMaskFilter);}
	.st2{fill:#FFFFFF;}
	.st3{mask:url(#mask-2);fill:#212121;}
	.st4{filter:url(#Adobe_OpacityMaskFilter_1_);}
	.st5{mask:url(#mask-4);fill:#212121;}
	.st6{filter:url(#Adobe_OpacityMaskFilter_2_);}
	.st7{mask:url(#mask-6);fill:#212121;}
	.st8{filter:url(#Adobe_OpacityMaskFilter_3_);}
	.st9{mask:url(#mask-8);fill:#212121;}
	.st10{filter:url(#Adobe_OpacityMaskFilter_4_);}
	.st11{mask:url(#mask-10);fill:#212121;}
</style>
<title>WBALTV</title>
<desc>Created with Sketch.</desc>
<path id="Fill-1" class="st0" d="M43.8,44.8l-12.4,0c0,0-3.5-0.4-2.8-4.5c0,0,0.8-3.5,4.1-3c0,0,1.2,0.1,3.4,2L43.8,44.8z"/>
<path id="Fill-3" class="st0" d="M43.9,43.9l-10.5-7.7c0,0-2.2-1.7-0.8-4.9c0,0,0.8-1.8,3.1-1.8c0,0,2.5-0.1,3.4,2.5L43.9,43.9z"/>
<g id="Group-7" transform="translate(48.584448, 36.808922)">
	<g id="Clip-6">
	</g>
	<defs>
		<filter id="Adobe_OpacityMaskFilter" filterUnits="userSpaceOnUse" x="0.3" y="0.3" width="15.3" height="7.6">
			<feColorMatrix  type="matrix" values="1 0 0 0 0  0 1 0 0 0  0 0 1 0 0  0 0 0 1 0"/>
		</filter>
	</defs>
	<mask maskUnits="userSpaceOnUse" x="0.3" y="0.3" width="15.3" height="7.6" id="mask-2">
		<g class="st1">
			<polygon id="path-1" class="st2" points="15.6,7.8 15.6,0.3 0.3,0.3 0.3,7.8 			"/>
		</g>
	</mask>
	<path id="Fill-5" class="st3" d="M0.3,7.8l12.4,0c0,0,3.5-0.4,2.8-4.5c0,0-0.8-3.5-4.1-3c0,0-1.2,0.1-3.4,2L0.3,7.8z"/>
</g>
<path id="Fill-8" class="st0" d="M48.8,43.8l10.5-7.7c0,0,2.2-1.7,0.8-4.9c0,0-0.8-1.8-3.1-1.8c0,0-2.3-0.1-3.4,2.5L48.8,43.8z"/>
<path id="Fill-10" class="st0" d="M44.1,42.5l-5.3-12.8c0,0-0.9-2.2,1.3-4.1c0,0,2.5-1.9,4.4,0.1c0,0,1.7,1.6,0.9,6.6L44.1,42.5z"/>
<path id="Fill-12" class="st0" d="M48.6,42.5l-1.6-11.1c0,0-0.3-1.3,1.3-2.2L46.7,29c0,0-0.3-3.6,3.2-4.2c0,0,2.7-0.4,3.8,2.7
	c0,0,0.4,1.3-0.7,3.8L48.6,42.5z"/>
<g id="Group-16" transform="translate(0.000000, 0.221411)">
	<g id="Clip-15">
	</g>
	<defs>
		<filter id="Adobe_OpacityMaskFilter_1_" filterUnits="userSpaceOnUse" x="0" y="0.2" width="23.6" height="44.3">
			<feColorMatrix  type="matrix" values="1 0 0 0 0  0 1 0 0 0  0 0 1 0 0  0 0 0 1 0"/>
		</filter>
	</defs>
	<mask maskUnits="userSpaceOnUse" x="0" y="0.2" width="23.6" height="44.3" id="mask-4">
		<g class="st4">
			<polygon id="path-3" class="st2" points="23.6,0.2 0,0.2 0,44.4 23.6,44.4 			"/>
		</g>
	</mask>
	<path id="Fill-14" class="st5" d="M16.8,18.6V7.2c1.6-0.5,3.1-1.5,4.6-3c1.4-1.5,2.2-2.9,2.2-4H6.2c0,1.1-0.7,2.5-2.2,4
		c-1.4,1.5-2.8,2.6-4,3v10.6h4.5v26.6h17.7l0-25.8H16.8z"/>
</g>
<g id="Group-19" transform="translate(17.701311, 0.221411)">
	<g id="Clip-18">
	</g>
	<defs>
		<filter id="Adobe_OpacityMaskFilter_2_" filterUnits="userSpaceOnUse" x="0.2" y="0.2" width="23.9" height="44.3">
			<feColorMatrix  type="matrix" values="1 0 0 0 0  0 1 0 0 0  0 0 1 0 0  0 0 0 1 0"/>
		</filter>
	</defs>
	<mask maskUnits="userSpaceOnUse" x="0.2" y="0.2" width="23.9" height="44.3" id="mask-6">
		<g class="st6">
			<polygon id="path-5" class="st2" points="24.1,0.2 0.2,0.2 0.2,44.4 24.1,44.4 			"/>
		</g>
	</mask>
	<path id="Fill-17" class="st7" d="M11.8,44.4c-0.4-0.2-0.8-0.5-1.2-1c-0.7-0.9-0.9-2.1-0.7-3.6c0.3-1.4,1.7-3.9,4.8-3.4
		c0,0,0.2,0,0.4,0.1L15,36.4c-0.9-0.7-2.3-2.7-1-5.6c0-0.1,0.9-2.1,3.6-2.2c0.6,0,1.7,0.2,2.6,0.9c-0.1-0.4-0.9-2.7,1.5-4.7
		c0.5-0.4,1.5-0.9,2.4-0.9V0.2H7.3C7.2,1.5,6.1,3.1,4.4,5C2.5,6.8,1.1,7.8,0.2,8v9.8h5.3v26.6H11.8z"/>
</g>
<polygon id="Fill-20" class="st0" points="17.2,62.5 13.9,62.5 12.2,53.2 12.1,53.2 10.5,62.5 7.2,62.5 4.6,48.7 7.7,48.7 9.2,58.3 
	9.2,58.3 10.7,48.7 13.7,48.7 15.3,58.3 15.3,58.3 16.7,48.7 19.8,48.7 "/>
<path id="Fill-22" class="st0" d="M25.9,58.3c0-0.3,0-0.6-0.1-0.8c-0.1-0.2-0.2-0.4-0.4-0.5c-0.2-0.1-0.3-0.2-0.5-0.3
	c-0.2-0.1-0.4-0.1-0.6-0.1h-1.1v3.4h1.2c0.5,0,0.8-0.1,1.2-0.4C25.7,59.2,25.9,58.8,25.9,58.3 M25.7,52.7c0-0.5-0.1-0.9-0.4-1.1
	c-0.3-0.2-0.6-0.3-1-0.3h-1v3h1.1c0.4,0,0.7-0.1,1-0.4C25.5,53.7,25.7,53.3,25.7,52.7 M28.9,58.5c0,0.7-0.1,1.4-0.4,1.9
	c-0.2,0.5-0.6,0.9-0.9,1.2c-0.4,0.3-0.8,0.5-1.3,0.7c-0.5,0.1-1,0.2-1.5,0.2h-4.6V48.7h4.1c0.4,0,0.9,0,1.4,0.1
	c0.5,0.1,0.9,0.3,1.3,0.5c0.4,0.3,0.7,0.6,1,1.1c0.3,0.5,0.4,1.1,0.4,1.8c0,0.8-0.2,1.5-0.5,2c-0.3,0.5-0.7,0.8-1.2,1.1v0
	c0.3,0.1,0.5,0.2,0.8,0.3c0.3,0.2,0.5,0.4,0.7,0.7c0.2,0.3,0.4,0.6,0.5,1C28.8,57.6,28.9,58.1,28.9,58.5"/>
<g id="Group-26" transform="translate(28.623396, 48.501838)">
	<g id="Clip-25">
	</g>
	<defs>
		<filter id="Adobe_OpacityMaskFilter_3_" filterUnits="userSpaceOnUse" x="0" y="0.2" width="10.6" height="13.8">
			<feColorMatrix  type="matrix" values="1 0 0 0 0  0 1 0 0 0  0 0 1 0 0  0 0 0 1 0"/>
		</filter>
	</defs>
	<mask maskUnits="userSpaceOnUse" x="0" y="0.2" width="10.6" height="13.8" id="mask-8">
		<g class="st8">
			<polygon id="path-7" class="st2" points="0,14 10.6,14 10.6,0.2 0,0.2 			"/>
		</g>
	</mask>
	<path id="Fill-24" class="st9" d="M5.3,3.2L5.3,3.2L4,9h2.3L5.3,3.2z M7.3,14l-0.6-2.5H3.7L3.1,14H0L3.4,0.2h3.9L10.6,14H7.3z"/>
</g>
<polygon id="Fill-27" class="st0" points="39.5,62.5 39.5,48.7 42.6,48.7 42.6,59.6 46.3,59.6 46.3,62.5 "/>
<g id="Group-31" transform="translate(44.818212, 48.501838)">
	<g id="Clip-30">
	</g>
	<defs>
		<filter id="Adobe_OpacityMaskFilter_4_" filterUnits="userSpaceOnUse" x="0.3" y="0.2" width="8.1" height="13.8">
			<feColorMatrix  type="matrix" values="1 0 0 0 0  0 1 0 0 0  0 0 1 0 0  0 0 0 1 0"/>
		</filter>
	</defs>
	<mask maskUnits="userSpaceOnUse" x="0.3" y="0.2" width="8.1" height="13.8" id="mask-10">
		<g class="st10">
			<polygon id="path-9" class="st2" points="0.3,14 8.4,14 8.4,0.2 0.3,0.2 			"/>
		</g>
	</mask>
	<polygon id="Fill-29" class="st11" points="5.8,2.8 5.8,14 2.8,14 2.8,2.8 0.3,2.8 0.3,0.2 8.4,0.2 8.4,2.8 	"/>
</g>
<polygon id="Fill-32" class="st0" points="59.5,62.5 55.5,62.5 52.2,48.7 55.7,48.7 57.6,58.8 57.6,58.8 59.5,48.7 62.9,48.7 "/>
</svg>
