<?xml version="1.0" encoding="UTF-8"?>
<svg width="12px" height="12px" viewBox="0 0 12 12" version="1.1" xmlns="http://www.w3.org/2000/svg" xmlns:xlink="http://www.w3.org/1999/xlink">
    <!-- Generator: Sketch 44.1 (41455) - http://www.bohemiancoding.com/sketch -->
    <title>add</title>
    <desc>Created with Sketch.</desc>
    <defs></defs>
    <g id="Tabs-V2" stroke="none" stroke-width="1" fill="none" fill-rule="evenodd">
        <g id="V2_Details" transform="translate(-882.000000, -374.000000)" fill-rule="nonzero" fill="#FFFFFF">
            <g id="Product-Info" transform="translate(125.000000, 246.000000)">
                <g id="Add-to-Cart-button" transform="translate(733.000000, 111.000000)">
                    <g id="add" transform="translate(24.000000, 17.000000)">
                        <path d="M11.3488121,5.16284942 L6.83721725,5.16284942 L6.83721725,0.651230214 C6.83721725,0.445707482 6.5581367,6.66666667e-05 6,6.66666667e-05 C5.4418633,6.66666667e-05 5.16278275,0.445731879 5.16278275,0.651230214 L5.16278275,5.16287382 L0.651163547,5.16287382 C0.445665212,5.16284942 0,5.44192997 0,6.00004227 C0,6.55815457 0.445665212,6.83725952 0.651163547,6.83725952 L5.16280715,6.83725952 L5.16280715,11.3489031 C5.16280715,11.5543771 5.4418633,12.0000667 6.0000244,12.0000667 C6.55818549,12.0000667 6.83724164,11.5543771 6.83724164,11.3489031 L6.83724164,6.83725952 L11.3488852,6.83725952 C11.5543592,6.83725952 12.0000488,6.55820336 12.0000488,6.00004227 C12.0000488,5.44188117 11.5543104,5.16284942 11.3488121,5.16284942 Z" id="Shape"></path>
                    </g>
                </g>
            </g>
        </g>
    </g>
</svg>